<?xml version="1.0" standalone="no"?><!DOCTYPE svg PUBLIC "-//W3C//DTD SVG 1.1//EN" "http://www.w3.org/Graphics/SVG/1.1/DTD/svg11.dtd"><svg t="1569028169651" class="icon" viewBox="0 0 1024 1024" version="1.1" xmlns="http://www.w3.org/2000/svg" p-id="1603" width="128" height="128" xmlns:xlink="http://www.w3.org/1999/xlink"><defs><style type="text/css"></style></defs><path d="M146.655756 408.538255a60.31121 60.31121 0 0 0-29.815801-7.919607c-21.623892 0-41.703221 11.660884-52.405332 30.431338-16.461617 28.873045-6.365891 65.757227 22.509442 82.223421a60.327228 60.327228 0 0 0 29.81809 7.919608c21.621604 0 41.703221-11.660884 52.403043-30.431339 7.974525-13.985739 10.024791-30.243702 5.773236-45.771716-4.249266-15.530302-14.294651-28.474891-28.282678-36.451705z m-9.294842 64.091387a23.74967 23.74967 0 0 1-20.596471 11.951491c-4.070784 0-8.11182-1.077762-11.683767-3.114298-11.338242-6.461997-15.301478-20.944284-8.837193-32.280238a23.756535 23.756535 0 0 1 20.601048-11.953779c4.068495 0 8.107243 1.077762 11.681479 3.114298a23.50254 23.50254 0 0 1 11.104841 14.310669 23.532287 23.532287 0 0 1-2.269937 17.971857z" p-id="1604" fill="#ffffff"></path><path d="M917.267213 376.560065c-16.358646-55.299959-49.796735-105.069235-95.225216-141.239485-50.485496-40.195269-111.350461-61.44389-176.01162-61.44389h-202.044956a189.718193 189.718193 0 0 0-20.436294 1.112086 161.726121 161.726121 0 0 0-12.452616-7.905879c-24.250795-13.816409-51.74403-21.120479-79.509566-21.120479-32.795093 0-64.249275 10.054538-90.545759 27.914272H97.515746C43.744334 173.878978 0 217.614159 0 271.371842V698.600463c0 75.656165 60.871829 137.50965 135.692786 137.884922l0.700202 0.002288c36.241186 0 70.331424-14.072692 96.060424-39.675838 26.012742-25.8846 40.339429-60.366128 40.339428-97.096998v-63.311096h-102.215796v62.590299c0 19.08852-15.022313 34.914005-33.481566 35.277836-9.260518 0.100683-17.937534-3.274475-24.507078-9.720454-6.688533-6.558103-10.370315-15.381567-10.370315-24.836585v-100.50648h48.984409c47.558834 0 93.836252-14.697382 132.502975-41.700933 0.997674 1.569734 2.013653 3.128028 3.059381 4.672592v315.857566h218.932186V645.133386h201.756637v232.904196h221.403488V456.733221c0-13.825562-1.01598-27.598494-3.004462-41.179214 35.488354 10.22158 61.533131 42.964043 61.533131 81.697125v111.531232h36.611882v-111.531232c0.002288-62.020527-46.668708-113.316061-106.730499-120.691067zM392.969053 198.896334c59.530919 33.920908 80.367656 109.952345 46.446748 169.480976l-61.519402 107.96615-107.963862-61.52169c-59.530919-33.920908-80.365368-109.950056-46.44446-169.478688 22.060947-38.717065 63.482714-62.768782 108.098868-62.768782 21.417951 0 42.643689 5.645094 61.382108 16.322034zM65.606203 562.598764v137.118361c0 19.367685 7.580948 37.469972 21.344727 50.970604 13.647079 13.386219 31.705889 20.587319 50.85848 20.186876 38.257128-0.75512 69.379515-33.001035 69.379515-71.880565v-25.978418h28.994322v26.699215c0 26.916598-10.493881 52.183372-29.550365 71.14375-18.939784 18.843678-44.012058 29.216281-70.754749 29.014916C81.141082 799.601202 36.611881 754.168146 36.611881 698.600463V271.371842c0-33.570807 27.321617-60.880982 60.903865-60.880983H202.669646a160.023669 160.023669 0 0 0-10.990429 16.727054c-43.915952 77.072587-16.942148 175.501342 60.130439 219.419582l58.640793 33.412918a195.097851 195.097851 0 0 1-18.596548 22.541478 188.718231 188.718231 0 0 1-14.317534 13.486901l-0.906144 0.791732c-35.021553 29.500023-79.518718 45.730528-125.425441 45.730529H65.606203z m257.770528 278.826936V602.594956a190.436701 190.436701 0 0 0 39.096913 25.095157v213.735587h-39.096913z m420.691112 0v-196.363249c14.203122-0.33866 28.101907-2.210442 41.570503-5.615348v201.980886H744.067843z m148.179725 0h-69.999629V586.687094l-25.333134 10.530492c-18.045081 7.500859-37.401325 11.303918-57.530995 11.303919H469.087443v232.904195h-69.999629V603.386688l-11.48469-4.613097c-27.001263-10.841693-50.414561-29.184246-67.709098-53.043751a155.259548 155.259548 0 0 1-7.699937-11.704361 228.245334 228.245334 0 0 0 6.084437-6.098166 231.558709 231.558709 0 0 0 24.08833-29.694525l49.213234 28.042413 79.644571-139.772722c32.625763-57.258694 26.097407-126.290397-11.006447-176.016196h185.809875c113.952193 0 212.321453 77.219034 239.219745 187.805222a246.173714 246.173714 0 0 1 6.999734 58.437139v384.697056z" p-id="1605" fill="#ffffff"></path></svg>