<?xml version="1.0" standalone="no"?><!DOCTYPE svg PUBLIC "-//W3C//DTD SVG 1.1//EN" "http://www.w3.org/Graphics/SVG/1.1/DTD/svg11.dtd"><svg t="1555553571009" class="icon" style="" viewBox="0 0 1024 1024" version="1.1" xmlns="http://www.w3.org/2000/svg" p-id="13882" xmlns:xlink="http://www.w3.org/1999/xlink" width="200" height="200"><defs><style type="text/css"></style></defs><path d="M702.912 67.968 321.088 67.968c-53.952 0-97.6 43.712-97.6 97.6l0 692.736c0 53.888 43.712 97.6 97.6 97.6l381.888 0c53.888 0 97.6-43.776 97.6-97.6L800.576 165.632C800.576 111.68 756.8 67.968 702.912 67.968zM472.64 102.144l78.848 0c7.36 0 13.376 6.08 13.376 13.504S558.848 129.152 551.488 129.152L472.64 129.152c-7.488 0-13.504-6.08-13.504-13.504S465.152 102.144 472.64 102.144zM512 916.992c-24.128 0-43.776-19.648-43.776-43.776 0-24.256 19.648-43.776 43.776-43.776 24.256 0 43.776 19.52 43.776 43.776C555.776 897.344 536.256 916.992 512 916.992zM728.576 761.856c0 11.008-8.896 19.968-19.904 19.968L315.328 781.824c-11.008 0-19.968-9.024-19.968-19.968L295.36 191.488c0-11.008 8.96-19.904 19.968-19.904l393.344 0c11.008 0 19.904 8.896 19.904 19.904L728.576 761.856zM569.6 336.96C555.136 337.472 537.472 345.984 526.976 357.376c-9.344 10.112-17.472 26.176-15.232 41.6 16.128 1.152 32.768-7.68 42.88-19.072C564.608 368.576 571.52 352.768 569.6 336.96zM590.976 480C590.656 445.952 620.864 429.568 622.272 428.736c-17.024-23.104-43.52-26.304-52.864-26.624C546.752 400 525.376 414.4 513.856 414.4c-11.392 0-28.992-12.032-47.616-11.712C441.6 403.008 419.008 416 406.336 436.48 380.8 477.632 399.808 538.752 424.768 572.096 436.864 588.48 451.392 606.848 470.4 606.272c18.24-0.768 25.28-11.136 47.36-11.136s28.352 11.136 47.744 10.752C585.28 605.504 597.76 589.248 609.728 572.8c14.016-19.072 19.712-37.44 19.968-38.336C629.312 534.272 591.36 520.768 590.976 480z" p-id="13883"></path></svg>