<?xml version="1.0" standalone="no"?><!DOCTYPE svg PUBLIC "-//W3C//DTD SVG 1.1//EN" "http://www.w3.org/Graphics/SVG/1.1/DTD/svg11.dtd"><svg class="icon" width="200px" height="200.00px" viewBox="0 0 1024 1024" version="1.1" xmlns="http://www.w3.org/2000/svg"><path fill="#ffffff" d="M513.024 808.448m-51.2 0a51.2 51.2 0 1 0 102.4 0 51.2 51.2 0 1 0-102.4 0Z"  /><path fill="#ffffff" d="M798.208 25.6H225.792c-28.16 0-51.2 23.04-51.2 51.2v870.4c0 28.16 23.04 51.2 51.2 51.2h572.416c28.16 0 51.2-23.04 51.2-51.2v-870.4c0-28.16-23.04-51.2-51.2-51.2z m-51.2 102.4v489.984H276.992V128h470.016z m-470.016 768v-175.616h470.016v175.616H276.992z"  /></svg>