<?xml version="1.0" standalone="no"?><!DOCTYPE svg PUBLIC "-//W3C//DTD SVG 1.1//EN" "http://www.w3.org/Graphics/SVG/1.1/DTD/svg11.dtd"><svg t="1553842415822" class="icon" style="" viewBox="0 0 1024 1024" version="1.1" xmlns="http://www.w3.org/2000/svg" p-id="2267" xmlns:xlink="http://www.w3.org/1999/xlink" width="200" height="200"><defs><style type="text/css"></style></defs><path d="M510.976 888.2176l-67.3792-67.3792c-49.5616-32.5632-79.872-74.5472-90.112-124.7232-19.0464-94.8224 40.3456-185.1392 44.6464-191.488 3.8912-6.3488 92.3648-154.0096 76.3904-225.6896-15.7696-71.2704-77.4144-95.4368-80.0768-96.4608-5.3248-2.048-7.9872-7.9872-5.9392-13.1072 2.048-5.3248 7.7824-7.9872 13.1072-5.9392 3.072 1.2288 74.5472 28.8768 92.7744 111.2064 17.8176 80.896-75.1616 234.496-79.0528 241.0496l-0.2048 0.4096c-0.6144 0.8192-59.392 88.4736-41.5744 176.3328 9.0112 44.8512 36.6592 82.5344 81.92 112.0256l0.8192 0.6144 53.8624 53.8624 50.7904-53.8624 1.024-0.6144c45.4656-29.4912 72.9088-67.1744 81.92-112.2304 17.6128-87.8592-41.1648-175.3088-41.5744-176.128l-0.2048-0.4096c-3.8912-6.5536-97.28-160.1536-79.0528-241.0496 18.432-82.3296 89.7024-109.9776 92.7744-111.2064 5.3248-2.048 11.264 0.6144 13.1072 5.9392s-0.6144 11.264-5.9392 13.1072c-2.6624 1.024-64.1024 25.1904-80.0768 96.4608-15.9744 71.68 72.704 219.5456 76.3904 225.6896 4.3008 6.3488 63.6928 96.6656 44.6464 191.488-10.0352 50.176-40.3456 92.16-89.9072 124.7232l-63.0784 67.3792z m-104.0384-378.0608z" fill="" p-id="2268"></path><path d="M606.0032 736.6656h-168.7552c-29.4912 0-53.4528-23.9616-53.4528-53.4528s23.9616-53.4528 53.4528-53.4528H571.392c18.2272 0 32.9728-14.7456 32.9728-32.9728 0-18.2272-14.7456-32.9728-32.9728-32.9728h-137.0112c-5.7344 0-10.24-4.5056-10.24-10.24s4.5056-10.24 10.24-10.24H571.392c29.4912 0 53.4528 23.9616 53.4528 53.4528s-23.9616 53.4528-53.4528 53.4528h-134.144c-18.2272 0-32.9728 14.7456-32.9728 32.9728 0 18.2272 14.7456 32.9728 32.9728 32.9728h168.7552c5.7344 0 10.24 4.5056 10.24 10.24s-4.5056 10.24-10.24 10.24zM202.1376 491.1104c-37.2736 0-73.1136-5.5296-100.7616-20.8896-26.4192-14.5408-43.4176-36.864-50.176-65.9456-13.1072-55.9104-8.6016-95.4368 13.7216-117.3504 26.4192-26.0096 66.1504-16.384 67.9936-15.9744l0.8192 0.2048 294.7072 121.4464c5.3248 2.2528 7.7824 8.192 5.5296 13.312-2.2528 5.3248-8.192 7.7824-13.312 5.5296L127.1808 290.816c-4.3008-0.8192-31.3344-5.7344-48.128 10.8544-16.5888 16.384-19.2512 50.3808-8.192 98.0992 5.5296 23.552 18.6368 40.7552 40.1408 52.6336 88.8832 49.152 282.0096-16.1792 283.8528-16.7936 5.3248-1.8432 11.264 1.024 13.1072 6.3488s-1.024 11.264-6.3488 13.1072c-5.9392 1.8432-106.9056 36.0448-199.4752 36.0448zM235.52 637.952c-6.3488 0-12.9024-0.2048-19.6608-0.8192-34.816-2.6624-59.1872-15.1552-71.8848-37.0688-23.552-40.1408 1.6384-96.256 2.8672-98.5088 2.4576-5.12 8.3968-7.3728 13.5168-4.9152 5.12 2.4576 7.3728 8.3968 5.12 13.5168-0.2048 0.6144-21.9136 48.7424-3.6864 79.6672 9.216 15.7696 28.0576 24.7808 55.9104 26.8288 96.6656 7.3728 137.6256-47.104 138.0352-47.7184 3.2768-4.5056 9.8304-5.5296 14.336-2.2528s5.5296 9.8304 2.2528 14.336c-2.048 2.4576-42.8032 56.9344-136.8064 56.9344zM553.984 382.1568h-86.4256c-34.2016 0-62.0544-27.8528-62.0544-62.0544s27.8528-62.0544 62.0544-62.0544h86.4256c34.2016 0 62.0544 27.8528 62.0544 62.0544 0.2048 16.384-6.144 31.9488-17.8176 43.6224-11.8784 11.8784-27.648 18.432-44.2368 18.432zM467.5584 278.528c-22.9376 0-41.5744 18.6368-41.5744 41.5744 0 22.9376 18.6368 41.5744 41.5744 41.5744h86.4256c11.264 0 21.7088-4.3008 29.696-12.288 7.7824-7.7824 12.0832-18.2272 11.8784-29.0816 0-22.9376-18.6368-41.5744-41.5744-41.5744h-86.4256zM821.0432 491.1104c-92.5696 0-193.7408-34.2016-199.4752-36.2496-5.3248-1.8432-8.192-7.5776-6.3488-13.1072 1.8432-5.3248 7.5776-8.192 13.1072-6.3488 1.8432 0.6144 194.9696 65.9456 283.8528 16.7936 21.504-11.8784 34.6112-29.0816 40.1408-52.6336 11.264-47.7184 8.3968-81.7152-8.192-98.0992-16.7936-16.5888-43.6224-11.6736-47.9232-10.8544l-293.2736 120.832c-5.3248 2.2528-11.264-0.4096-13.312-5.5296-2.2528-5.3248 0.4096-11.264 5.5296-13.312l294.7072-121.4464 0.8192-0.2048c1.6384-0.4096 41.5744-10.0352 67.9936 15.9744 22.3232 21.9136 26.8288 61.44 13.7216 117.3504-6.7584 29.0816-23.7568 51.2-50.176 65.9456-28.0576 15.36-63.8976 20.8896-101.1712 20.8896zM787.456 637.952c-93.7984 0-134.5536-54.272-136.3968-56.7296-3.2768-4.5056-2.2528-11.0592 2.2528-14.336 4.5056-3.2768 11.0592-2.2528 14.336 2.2528 1.6384 2.048 36.864 48.3328 119.808 48.3328 5.7344 0 11.8784-0.2048 18.2272-0.6144 27.8528-2.048 46.6944-11.264 55.9104-26.8288 18.2272-31.1296-3.4816-79.0528-3.6864-79.6672-2.4576-5.12-0.2048-11.264 4.9152-13.5168 5.12-2.4576 11.264-0.2048 13.5168 4.9152 1.024 2.4576 26.4192 58.368 2.8672 98.5088-12.9024 21.9136-37.0688 34.2016-71.8848 37.0688-6.9632 0.2048-13.7216 0.6144-19.8656 0.6144z" fill="" p-id="2269"></path><path d="M541.0816 827.5968h-60.6208c-5.7344 0-10.24-4.5056-10.24-10.24s4.5056-10.24 10.24-10.24h60.6208c5.7344 0 10.24 4.5056 10.24 10.24s-4.5056 10.24-10.24 10.24z" fill="" p-id="2270"></path></svg>