<?xml version="1.0" standalone="no"?><!DOCTYPE svg PUBLIC "-//W3C//DTD SVG 1.1//EN" "http://www.w3.org/Graphics/SVG/1.1/DTD/svg11.dtd"><svg t="1548230693534" class="icon" style="" viewBox="0 0 1024 1024" version="1.1" xmlns="http://www.w3.org/2000/svg" p-id="3522" xmlns:xlink="http://www.w3.org/1999/xlink" width="32" height="32"><defs><style type="text/css"></style></defs><path d="M512 23.272727C242.082909 23.272727 23.272727 242.082909 23.272727 512s218.810182 488.727273 488.727273 488.727273 488.727273-218.810182 488.727273-488.727273S781.917091 23.272727 512 23.272727m0 69.818182c230.981818 0 418.909091 187.927273 418.909091 418.909091s-187.927273 418.909091-418.909091 418.909091S93.090909 742.981818 93.090909 512 281.018182 93.090909 512 93.090909m-116.340364 421.213091a115.968 115.968 0 0 1 34.071273-84.573091 115.898182 115.898182 0 0 1 84.573091-34.071273l228.072727-114.036363-114.036363 228.072727a115.968 115.968 0 0 1-34.071273 84.573091 115.898182 115.898182 0 0 1-84.596364 34.071273l-228.072727 114.036363 114.059636-228.072727zM512 465.454545a46.568727 46.568727 0 0 0 0 93.09091 46.568727 46.568727 0 0 0 0-93.09091z" fill="#1296db" p-id="3523"></path></svg>