<?xml version="1.0" standalone="no"?><!DOCTYPE svg PUBLIC "-//W3C//DTD SVG 1.1//EN" "http://www.w3.org/Graphics/SVG/1.1/DTD/svg11.dtd"><svg t="1560329763821" class="icon" style="" viewBox="0 0 1024 1024" version="1.1" xmlns="http://www.w3.org/2000/svg" p-id="2675" xmlns:xlink="http://www.w3.org/1999/xlink" width="200" height="200"><defs><style type="text/css"></style></defs><path d="M911.36 126.660923c-9.452308 0.315077-18.904615 0.393846-27.884308 0.393846C642.914462 127.054769 536.969846 25.206154 536.103385 24.418462L512 0l-24.103385 24.339692C486.793846 25.363692 374.941538 135.010462 112.482462 126.660923L78.769231 125.636923v461.902769c0 120.910769 43.638154 297.353846 421.415384 432.20677L512 1024l11.815385-4.253538C901.435077 884.814769 945.230769 708.450462 945.230769 587.618462V125.636923l-33.870769 1.024z m-442.368 597.858462L216.772923 517.828923l66.953846-50.097231 134.065231 91.372308s185.107692-176.994462 363.913846-259.623385l25.442462 26.624c0.078769 0-223.310769 171.086769-338.156308 398.257231z" p-id="2676"></path></svg>