<?xml version="1.0" standalone="no"?><!DOCTYPE svg PUBLIC "-//W3C//DTD SVG 1.1//EN" "http://www.w3.org/Graphics/SVG/1.1/DTD/svg11.dtd"><svg t="1546836498191" class="icon" style="" viewBox="0 0 1024 1024" version="1.1" xmlns="http://www.w3.org/2000/svg" p-id="11324" xmlns:xlink="http://www.w3.org/1999/xlink" width="200" height="200"><defs><style type="text/css"></style></defs><path d="M715.38541667 608.14583333c-8.90625-19.40625-24.75-34.03125-44.71875-41.4375-20.0625-7.40625-41.53125-6.5625-60.9375 2.34375-19.40625 8.90625-34.03125 24.75-41.4375 44.71875-0.75 1.96875-1.03125 3.9375-1.5 5.90625H597.54166667c5.15625-10.6875 13.5-19.40625 24.375-24.375 6.75-3.09375 13.875-4.6875 21.09375-4.6875 5.90625 0 11.90625 1.125 17.625 3.1875 12.65625 4.6875 22.875 14.15625 28.40625 26.34375 5.71875 12.375 6.09375 26.0625 1.40625 38.71875-4.6875 12.65625-14.15625 22.875-26.34375 28.40625-12.375 5.71875-26.15625 6.09375-38.71875 1.40625-12.65625-4.6875-22.875-14.15625-28.40625-26.34375-2.0625-4.5-3.1875-9.1875-3.9375-13.875h-29.0625c0.75 8.90625 2.8125 17.71875 6.65625 26.0625 8.90625 19.40625 24.75 34.03125 44.71875 41.4375 9.09375 3.375 18.375 5.0625 27.65625 5.0625 11.34375 0 22.6875-2.4375 33.28125-7.3125 19.40625-8.90625 34.03125-24.75 41.4375-44.71875 7.21875-19.78125 6.46875-41.4375-2.34375-60.84375z m-285.84375 11.53125c-1.125-3.9375-2.34375-7.78125-4.03125-11.53125-8.90625-19.40625-24.75-34.03125-44.71875-41.4375-20.0625-7.40625-41.53125-6.5625-60.9375 2.34375-19.40625 8.90625-34.03125 24.75-41.4375 44.71875-7.40625 20.0625-6.5625 41.53125 2.34375 60.9375 8.90625 19.40625 24.75 34.03125 44.71875 41.4375 9.09375 3.375 18.375 5.0625 27.65625 5.0625 11.34375 0 22.6875-2.4375 33.28125-7.3125 19.40625-8.90625 34.03125-24.75 41.4375-44.71875 2.53125-6.65625 3.75-13.59375 4.40625-20.4375H563.79166667c-0.84375-9.75 0.09375-19.5 2.8125-28.96875l-137.0625-0.09375z m-28.875 39.375c-4.6875 12.65625-14.15625 22.875-26.34375 28.40625-12.28125 5.71875-26.15625 6.09375-38.71875 1.40625-12.65625-4.6875-22.875-14.15625-28.40625-26.34375-5.71875-12.375-6.09375-26.0625-1.40625-38.71875 4.6875-12.65625 14.15625-22.875 26.34375-28.40625 6.75-3.09375 13.875-4.6875 21.09375-4.6875 5.90625 0 11.90625 1.125 17.625 3.1875 12.65625 4.6875 22.875 14.15625 28.40625 26.34375 5.71875 12.28125 6.09375 26.0625 1.40625 38.8125z" fill="#e6e6e6" p-id="11325"></path><path d="M809.51041667 354.64583333V113.23958333H374.88541667v87H143.04166667v154.40625H70.66666667v598.3125h840.28125V354.64583333H809.51041667zM414.16666667 152.23958333l356.0625 0.375 0.09375 202.03125H547.38541667l1.40625-154.40625H413.97916667l0.1875-48zM510.16666667 243.64583333l-0.375 111H180.63541667V237.73958333l329.53125 5.90625z m363.28125 671.8125H108.16666667V392.14583333h765.28125v523.3125z" fill="#e6e6e6" p-id="11326"></path></svg>