<?xml version="1.0" standalone="no"?><!DOCTYPE svg PUBLIC "-//W3C//DTD SVG 1.1//EN" "http://www.w3.org/Graphics/SVG/1.1/DTD/svg11.dtd"><svg t="1572426697368" class="icon" viewBox="0 0 1028 1024" version="1.1" xmlns="http://www.w3.org/2000/svg" p-id="2037" xmlns:xlink="http://www.w3.org/1999/xlink" width="200.78125" height="200"><defs><style type="text/css"></style></defs><path d="M426.050575 0.040731h0.610966a144.218611 144.218611 0 0 1 103.864283 44.722738 150.155168 150.155168 0 0 1 38.796365 70.403692h120.156719a23.023249 23.023249 0 0 1 22.605755 23.165808v21.30236h103.151489a37.767904 37.767904 0 0 1 37.167121 38.165033v129.850719a208.624649 208.624649 0 0 1 113.741572 60.587498l1.120105 1.354309a222.8398 222.8398 0 0 1-1.120105 307.74376l-0.509138 0.529504a214.856506 214.856506 0 0 1-113.232434 61.096637v226.413954a37.839184 37.839184 0 0 1-37.167121 38.470515H37.475964A37.961377 37.961377 0 0 1 0.00336 985.376743V197.800362a37.890098 37.890098 0 0 1 37.472604-38.165033h102.64235v-21.30236A23.06398 23.06398 0 0 1 162.927725 115.167161h119.953064a153.199817 153.199817 0 0 1 39.00002-70.403692A144.045504 144.045504 0 0 1 426.050575 0.040731zM355.382132 823.918697a22.992701 22.992701 0 0 1-22.300273-23.186174 22.4021 22.4021 0 0 1 22.300273-22.666852h237.054951a22.127165 22.127165 0 0 1 22.096617 22.666852 22.758497 22.758497 0 0 1-22.096617 23.186174H355.382132z m0-184.970068a22.565025 22.565025 0 0 1-22.300273-22.911239 23.06398 23.06398 0 0 1 22.300273-23.471291h116.694576a23.114894 23.114894 0 0 1 22.605756 23.471291 22.626121 22.626121 0 0 1-22.605756 22.911239H355.382132z m0-184.165629a22.483562 22.483562 0 0 1-22.300273-22.605756 22.870508 22.870508 0 0 1 22.300273-23.471291h146.733756a22.799228 22.799228 0 0 1 22.605756 23.471291 22.4021 22.4021 0 0 1-22.605756 22.605756H355.382132z m422.075933-127.376306v-90.850699h-65.373402v21.027426a23.06398 23.06398 0 0 1-22.605755 23.420378H162.927725a23.104712 23.104712 0 0 1-22.809411-23.420378v-21.027426H74.744913V946.692389h702.713152V758.983155a216.037708 216.037708 0 0 1-113.232434-61.096637 223.196197 223.196197 0 0 1 0-309.627573 208.400628 208.400628 0 0 1 113.232434-60.831885z m156.814701 93.559317a164.767447 164.767447 0 0 0-238.378711 0 175.296434 175.296434 0 0 0 0 244.142161 165.307134 165.307134 0 0 0 238.378711 0 174.349436 174.349436 0 0 0 48.87731-121.643404 176.16197 176.16197 0 0 0-47.757205-121.4092l-1.120105-1.089557zM147.551738 722.97687h106.308149a22.554842 22.554842 0 0 1 22.300272 23.420377v108.548359a22.636304 22.636304 0 0 1-22.300272 23.196356H147.551738a22.962153 22.962153 0 0 1-22.300272-23.196356V746.397247a22.880691 22.880691 0 0 1 22.300272-23.420377z m84.007876 46.097413h-61.707603v63.306298h61.707603v-63.306298zM147.551738 538.261371h106.308149a22.666852 22.666852 0 0 1 22.300272 23.206539v109.413894a22.65667 22.65667 0 0 1-22.300272 23.186174H147.551738a22.992701 22.992701 0 0 1-22.300272-23.186174V561.46791a23.002884 23.002884 0 0 1 22.300272-23.206539z m84.007876 46.402896h-61.707603v63.000815h61.707603v-63.000815z m-84.007876-230.802729h106.308149a22.178079 22.178079 0 0 1 22.300272 22.646487v109.332432a22.666852 22.666852 0 0 1-22.300272 23.216722H147.551738a23.002884 23.002884 0 0 1-22.300272-23.216722V376.508025a22.503928 22.503928 0 0 1 22.300272-22.646487z m84.007876 46.107595h-61.707603v63.306299h61.707603v-63.306299z m670.841073 54.284362a22.167896 22.167896 0 0 1 31.872079 0 23.736043 23.736043 0 0 1 0 32.46268L792.324913 631.851236a21.74022 21.74022 0 0 1-31.872079 0l-0.814622-0.804439-64.049641-66.045464a23.593485 23.593485 0 0 1 0-32.187745 22.21881 22.21881 0 0 1 31.872079 0l49.488276 50.211252L902.400687 454.253495zM522.786917 115.187526a108.354886 108.354886 0 0 0-24.133172-38.195581 100.341043 100.341043 0 0 0-71.992204-30.843619h-0.610966a100.157753 100.157753 0 0 0-72.297687 30.843619 104.88256 104.88256 0 0 0-23.827688 38.195581h192.861717z m-96.736342 46.351982H185.329826v73.122492h482.154292v-73.142858H426.050575z" p-id="2038" fill="#ffffff"></path></svg>