<?xml version="1.0" standalone="no"?><!DOCTYPE svg PUBLIC "-//W3C//DTD SVG 1.1//EN" "http://www.w3.org/Graphics/SVG/1.1/DTD/svg11.dtd"><svg t="1546934954923" class="icon" style="" viewBox="0 0 1024 1024" version="1.1" xmlns="http://www.w3.org/2000/svg" p-id="3230" xmlns:xlink="http://www.w3.org/1999/xlink" width="200" height="200"><defs><style type="text/css"></style></defs><path d="M510.171429 919.771429c-226.742857 0-411.428571-184.685714-411.428572-411.428572S283.428571 96.914286 510.171429 96.914286 921.6 281.6 921.6 508.342857 736.914286 919.771429 510.171429 919.771429zM256 256v173.714286l64-64 100.571429 100.571428 43.885714-43.885714-98.742857-102.4L429.714286 256H256z m396.8 64L554.057143 420.571429l43.885714 43.885714 100.571429-100.571429 64 64V254.171429h-173.714286l64 65.828571zM321.828571 652.8L256 586.971429v173.714285h173.714286L365.714286 696.685714l100.571428-100.571428-45.714285-43.885715-98.742858 100.571429z m232.228572-54.857143l100.571428 100.571429-64 64h173.714286v-173.714286l-64 64-100.571428-98.742857-45.714286 43.885714z" fill="#e6e6e6" p-id="3231"></path></svg>