<?xml version="1.0" standalone="no"?><!DOCTYPE svg PUBLIC "-//W3C//DTD SVG 1.1//EN" "http://www.w3.org/Graphics/SVG/1.1/DTD/svg11.dtd"><svg t="1571133945230" class="icon" viewBox="0 0 1030 1024" version="1.1" xmlns="http://www.w3.org/2000/svg" p-id="8411" xmlns:xlink="http://www.w3.org/1999/xlink" width="201.171875" height="200"><defs><style type="text/css"></style></defs><path d="M70.543825 470.574545L515.052916 692.596364l444.509091-222.021819a46.545455 46.545455 0 1 1 41.890909 82.85091l-465.454545 232.727272a46.545455 46.545455 0 0 1-41.890909 0l-465.454546-232.727272a46.545455 46.545455 0 0 1 41.890909-82.85091z m0 232.727273L515.052916 925.323636l444.509091-222.021818a46.545455 46.545455 0 1 1 41.890909 82.850909l-465.454545 232.727273a46.545455 46.545455 0 0 1-41.890909 0l-465.454546-232.727273a46.545455 46.545455 0 1 1 41.890909-82.850909zM515.052916 98.676364L153.860189 279.272727 515.052916 459.869091 876.245644 279.272727z m-20.945454-93.090909a46.545455 46.545455 0 0 1 41.890909 0l465.454545 232.727272a46.545455 46.545455 0 0 1 0 82.850909l-465.454545 232.727273a46.545455 46.545455 0 0 1-41.890909 0l-465.454546-232.727273a46.545455 46.545455 0 0 1 0-82.850909z" fill="#ffffff" p-id="8412"></path></svg>