<?xml version="1.0" standalone="no"?><!DOCTYPE svg PUBLIC "-//W3C//DTD SVG 1.1//EN" "http://www.w3.org/Graphics/SVG/1.1/DTD/svg11.dtd"><svg t="1571133705784" class="icon" viewBox="0 0 1024 1024" version="1.1" xmlns="http://www.w3.org/2000/svg" p-id="6956" xmlns:xlink="http://www.w3.org/1999/xlink" width="200" height="200"><defs><style type="text/css"></style></defs><path d="M595.968 338.2784a25.856 25.856 0 0 1-25.4976 26.2656c-7.4752 0-12.9536-2.2016-16.3328-6.7584a81.408 81.408 0 0 1-10.1888-21.9648 24.1664 24.1664 0 0 0-4.7616-9.0112c-1.9456-2.1504-4.8128-3.2256-8.5504-3.2256a11.3664 11.3664 0 0 0-10.1376 5.376c-2.304 3.584-4.3008 8.2944-5.9904 14.08l-30.8736 98.7648h42.9056l-7.424 22.9376h-42.8032l-44.3904 142.336a843.9808 843.9808 0 0 1-31.8976 87.3984 159.6928 159.6928 0 0 1-40.0384 54.784c-17.2544 15.2576-39.0144 22.8864-65.3824 22.8864-18.8416 0-33.4848-4.0448-43.776-12.1344-10.24-8.1408-15.4112-17.2544-15.4112-27.3408 0-7.68 2.6624-14.336 8.0896-20.1216a27.6992 27.6992 0 0 1 21.1968-8.6016c10.3424 0 17.2032 2.6624 20.48 8.0896a50.5856 50.5856 0 0 1 6.0416 21.1968c1.024 11.3152 5.9904 16.9984 14.848 16.9984 8.704 0 15.7696-4.7104 21.4528-14.08 5.632-9.472 11.264-23.9104 17.1008-43.3664l71.2704-227.7376h-45.056l7.168-22.9888h44.9024l4.8128-15.9744c6.656-22.6304 14.0288-42.4448 22.016-59.392a132.608 132.608 0 0 1 35.584-45.1584c15.7696-13.2096 35.4304-19.712 59.0848-19.712 8.8576 0 17.3056 1.536 25.2928 4.352 7.9872 2.8672 14.336 7.0656 19.0976 12.4928 4.864 5.376 7.168 11.9808 7.168 19.6096z m151.4496 238.3872c0 10.6496-1.536 20.992-4.608 30.72h-24.5248c3.3792-11.4688 5.12-21.8624 5.12-31.232a14.848 14.848 0 0 0-1.9456-6.9632c-1.3312-2.4064-3.84-3.7376-7.5776-3.7376a10.9568 10.9568 0 0 0-6.8608 2.2528c-1.8944 1.536-6.5024 6.0416-14.08 13.824l-47.4624 48.896 21.4528 66.2528c2.3552 7.168 4.7616 13.1584 7.1168 17.92 2.3552 4.7616 5.3248 7.168 8.9088 7.168 6.0416 0 11.264-4.5568 16.0768-13.5168 4.7616-9.0624 8.1408-16.9984 10.1888-23.9616h22.9376c-5.12 18.1248-11.776 33.024-19.968 44.4928-8.192 11.4688-16.896 19.8656-26.2656 25.088a54.8352 54.8352 0 0 1-26.5216 7.936c-13.5168 0-23.7056-4.5056-30.72-13.6192-7.0144-9.1648-13.312-21.9136-18.7392-38.656l-9.8304-31.3344-55.9104 58.2144c-16.384 16.896-30.0032 25.2416-40.8064 25.2416-14.9504 0-22.4256-9.728-22.4256-29.2864 0-13.824 2.9184-27.648 8.9088-41.5744h27.5456c-6.1952 17.408-9.4208 28.4672-9.4208 33.28 0 5.2224 1.5872 7.7824 4.8128 7.7824 2.7136 0 7.424-3.2256 14.08-9.728l65.3824-67.9936-12.544-38.9632a275.5584 275.5584 0 0 0-6.0928-17.664 27.7504 27.7504 0 0 0-5.7856-9.1136 11.776 11.776 0 0 0-8.5504-3.5328c-9.728 0-17.92 12.3392-24.4736 37.0176h-23.4496c5.4784-17.5104 11.6224-32 18.7392-43.6224 7.0144-11.5712 15.0016-20.48 23.9104-26.624a49.2544 49.2544 0 0 1 28.3136-9.2672 40.448 40.448 0 0 1 32.0512 13.9264c8.0384 9.216 14.6432 22.016 19.7632 38.3488l4.096 12.8 39.3216-41.6256c15.3088-15.616 29.0816-23.4496 41.3184-23.4496 12.0832 0 19.8656 3.7888 23.296 11.4688 3.4304 7.7824 5.2224 15.36 5.2224 22.8352z" p-id="6957" fill="#ffffff"></path><path d="M184.2176 173.824v695.5008h614.4V382.464l-212.992-208.5888h-401.408z m0-51.2h401.408a51.2 51.2 0 0 1 35.84 14.592l212.992 208.5888a51.2 51.2 0 0 1 15.36 36.608v486.912a51.2 51.2 0 0 1-51.2 51.2h-614.4a51.2 51.2 0 0 1-51.2-51.2V173.824a51.2 51.2 0 0 1 51.2-51.2z" p-id="6958" fill="#ffffff"></path></svg>