<?xml version="1.0" standalone="no"?><!DOCTYPE svg PUBLIC "-//W3C//DTD SVG 1.1//EN" "http://www.w3.org/Graphics/SVG/1.1/DTD/svg11.dtd"><svg t="1554256448601" class="icon" style="" viewBox="0 0 1024 1024" version="1.1" xmlns="http://www.w3.org/2000/svg" p-id="4398" xmlns:xlink="http://www.w3.org/1999/xlink" width="200" height="200"><defs><style type="text/css"></style></defs><path d="M883.7 470.9c-18.5-9.9-40.9-8.7-58.3 3-0.5 0.3-0.9 0.6-1.4 1l-59.7 46.3v-53.7c0-64.9-52.8-117.6-117.6-117.6h-415c-64.9 0-117.6 52.8-117.6 117.6V784c0 64.9 52.8 117.6 117.6 117.6h415c64.9 0 117.6-52.8 117.6-117.6v-25.3L824 805c0.4 0.3 0.9 0.7 1.4 1 17.4 11.7 39.8 12.9 58.3 3s30.1-29.1 30.1-50.1v-238c0-21-11.5-40.2-30.1-50z m-19.9 288c0 3.3-1.9 5.1-3.6 5.9-1.5 0.8-3.9 1.4-6.4-0.1l-99.1-76.9c-7.5-5.8-17.8-6.9-26.3-2.7-8.6 4.2-14 12.9-14 22.5v76.3c0 37.3-30.3 67.6-67.6 67.6h-415c-37.3 0-67.6-30.3-67.6-67.6V467.4c0-37.3 30.3-67.6 67.6-67.6h415c37.3 0 67.6 30.3 67.6 67.6v104.8c0 9.5 5.4 18.3 14 22.5 8.6 4.2 18.8 3.2 26.3-2.7l99.1-76.9c2.6-1.5 4.9-0.9 6.4-0.1 1.6 0.9 3.6 2.6 3.6 5.9v238zM588 337.1c60.1 0 109-48.9 109-109s-48.9-109-109-109-109 48.9-109 109 48.9 109 109 109z m0-168c32.5 0 59 26.5 59 59s-26.5 59-59 59-59-26.5-59-59 26.5-59 59-59zM358.5 337.1c47.4 0 85.9-38.5 85.9-85.9s-38.5-85.9-85.9-85.9-85.9 38.5-85.9 85.9 38.6 85.9 85.9 85.9z m0-121.9c19.8 0 35.9 16.1 35.9 35.9S378.3 287 358.5 287s-35.9-16.1-35.9-35.9 16.1-35.9 35.9-35.9z" p-id="4399"></path><path d="M287.6 505m-55.2 0a55.2 55.2 0 1 0 110.4 0 55.2 55.2 0 1 0-110.4 0Z" p-id="4400"></path></svg>