<?xml version="1.0" standalone="no"?><!DOCTYPE svg PUBLIC "-//W3C//DTD SVG 1.1//EN" "http://www.w3.org/Graphics/SVG/1.1/DTD/svg11.dtd"><svg t="1554252473405" class="icon" style="" viewBox="0 0 1024 1024" version="1.1" xmlns="http://www.w3.org/2000/svg" p-id="1162" xmlns:xlink="http://www.w3.org/1999/xlink" width="200" height="200"><defs><style type="text/css"></style></defs><path d="M275.1 897.2c0-7-5.6-12.6-12.6-12.6H122.3c-18.2 0-33-13.7-33-30.6V184.4c0-16.9 14.8-30.6 33-30.6h487.2c18.2 0 33 13.7 33 30.6v170c0 7.5 6.1 13.6 13.6 13.6s13.6-6.1 13.6-13.6v-170c0-30.8-27-55.8-60.2-55.8H122.3c-33.2 0-60.2 25-60.2 55.8V854c0 30.8 27 55.8 60.2 55.8h140.2c7 0 12.6-5.7 12.6-12.6z" p-id="1163"></path><path d="M464.9 590H160.8c-0.6 0-1.1-0.5-1.1-1.1v-9.5c0-0.6 0.5-1.1 1.1-1.1h304.1c0.6 0 1.1 0.5 1.1 1.1v9.5c0 0.6-0.5 1.1-1.1 1.1zM364.8 713.6h-204c-0.6 0-1.1-0.5-1.1-1.1V703c0-0.6 0.5-1.1 1.1-1.1h204c0.6 0 1.1 0.5 1.1 1.1v9.5c0 0.7-0.5 1.1-1.1 1.1zM362.2 342.6H160.8c-0.6 0-1.1-0.5-1.1-1.1V332c0-0.6 0.5-1.1 1.1-1.1h201.4c0.6 0 1.1 0.5 1.1 1.1v9.5c0 0.6-0.5 1.1-1.1 1.1zM571 342.6H444.9c-0.6 0-1.1-0.5-1.1-1.1V332c0-0.6 0.5-1.1 1.1-1.1H571c0.6 0 1.1 0.5 1.1 1.1v9.5c0 0.6-0.4 1.1-1.1 1.1zM413.1 342.6h-13.3c-0.6 0-1.1-0.5-1.1-1.1V332c0-0.6 0.5-1.1 1.1-1.1h13.3c0.6 0 1.1 0.5 1.1 1.1v9.5c0 0.6-0.5 1.1-1.1 1.1zM534.6 466.3H160.8c-0.6 0-1.1-0.5-1.1-1.1v-9.5c0-0.6 0.5-1.1 1.1-1.1h373.8c0.6 0 1.1 0.5 1.1 1.1v9.5c0 0.6-0.5 1.1-1.1 1.1zM676.5 64.2H347.3c-7 0-12.6 5.6-12.6 12.6s5.6 12.6 12.6 12.6h329.2c18.2 0 33 13.7 33 30.6v179.8c0 7.1 5.1 13.6 12.2 14.3 8.1 0.8 15-5.6 15-13.5V120c0-30.8-27-55.8-60.2-55.8zM379.4 849c-23.7-4.4-35.6-17.8-35.6-41.5l232.8-259.4c17.8 41.5 48.9 81.5 86 106.7L379.4 849z m-3-38.5l4.4 4.4 238.7-164.6-3-3c-16.3-14.8-29.6-32.6-41.5-51.9l-3-3-195.6 218.1z m0 0" p-id="1164"></path><path d="M392.7 960.2c-7.4 0-16.3 0-22.2-1.5-3 0-5.9-1.5-7.4-1.5-14.8-4.4-26.7-10.4-37.1-20.8-8.9-10.4-14.8-22.2-16.3-35.6-3-26.7 10.4-54.9 37.1-77.1l3-1.5 16.3 22.2-3 1.5c-19.3 16.3-29.7 34.1-26.7 51.9 1.5 7.4 4.4 14.8 8.9 19.3 5.9 5.9 13.3 10.4 23.7 13.3 1.5 0 4.4 1.5 5.9 1.5 5.9 1.5 11.9 1.5 17.8 1.5 37.1-1.5 81.5-22.2 130.5-59.3 59.3-46 115.6-71.2 160.1-72.6h4.4c7.4 0 13.3 0 20.8 1.5 16.3 3 29.7 8.9 41.5 17.8 13.3 10.4 23.7 25.2 31.1 41.5l1.5 4.4s1.5 16.3-16.3 14.8c-5.9 0-13.3-14.8-13.3-14.8-4.4-10.4-11.9-17.8-19.3-23.7-8.9-5.9-17.8-10.4-29.7-11.9-4.4-1.5-10.4-1.5-14.8-1.5h-3c-40 1.5-89 25.2-143.8 66.7-68.2 52.1-118.6 63.9-149.7 63.9zM744.4 661C662.6 661 596 594.4 596 512.6c0-81.8 66.6-148.4 148.4-148.4 81.8 0 148.4 66.6 148.4 148.4 0 81.8-66.6 148.4-148.4 148.4z m0-270.2c-67.2 0-121.8 54.6-121.8 121.8 0 67.2 54.6 121.8 121.8 121.8s121.8-54.6 121.8-121.8c0-67.1-54.6-121.8-121.8-121.8z" p-id="1165"></path></svg>