<?xml version="1.0" standalone="no"?><!DOCTYPE svg PUBLIC "-//W3C//DTD SVG 1.1//EN" "http://www.w3.org/Graphics/SVG/1.1/DTD/svg11.dtd"><svg t="1554252526966" class="icon" style="" viewBox="0 0 1024 1024" version="1.1" xmlns="http://www.w3.org/2000/svg" p-id="1980" xmlns:xlink="http://www.w3.org/1999/xlink" width="200" height="200"><defs><style type="text/css"></style></defs><path d="M344.4 909.4c0-7.1-5.7-12.8-12.8-12.8H123.7c-18.5 0-33.6-14-33.6-31.2V182.9c0-17.2 15.1-31.2 33.6-31.2h496.5c18.5 0 33.6 14 33.6 31.2v243.6c0 7.6 6.2 13.8 13.8 13.8 7.6 0 13.8-6.2 13.8-13.8V182.9c0-31.3-27.5-56.8-61.3-56.8H123.7c-33.8 0-61.3 25.5-61.3 56.8v682.5c0 31.3 27.5 56.8 61.3 56.8h207.8c7.1 0 12.9-5.8 12.9-12.8z" p-id="1981"></path><path d="M365.6 596.2H162.9c-0.6 0-1.1-0.5-1.1-1.1v-9.7c0-0.6 0.5-1.1 1.1-1.1h202.7c0.6 0 1.1 0.5 1.1 1.1v9.7c0 0.6-0.5 1.1-1.1 1.1zM370.9 722.3h-208c-0.6 0-1.1-0.5-1.1-1.1v-9.7c0-0.6 0.5-1.1 1.1-1.1h208c0.6 0 1.1 0.5 1.1 1.1v9.7c0 0.6-0.5 1.1-1.1 1.1zM368.2 344.1H162.9c-0.6 0-1.1-0.5-1.1-1.1v-9.7c0-0.6 0.5-1.1 1.1-1.1h205.3c0.6 0 1.1 0.5 1.1 1.1v9.7c0 0.6-0.5 1.1-1.1 1.1zM581.1 344.1H452.5c-0.6 0-1.1-0.5-1.1-1.1v-9.7c0-0.6 0.5-1.1 1.1-1.1h128.6c0.6 0 1.1 0.5 1.1 1.1v9.7c0 0.6-0.5 1.1-1.1 1.1zM420.2 344.1h-13.6c-0.6 0-1.1-0.5-1.1-1.1v-9.7c0-0.6 0.5-1.1 1.1-1.1h13.6c0.6 0 1.1 0.5 1.1 1.1v9.7c0 0.6-0.5 1.1-1.1 1.1zM412.3 470.2H162.9c-0.6 0-1.1-0.5-1.1-1.1v-9.7c0-0.6 0.5-1.1 1.1-1.1h249.4c0.6 0 1.1 0.5 1.1 1.1v9.7c0 0.6-0.5 1.1-1.1 1.1zM688.6 60.4H353.1c-7.1 0-12.8 5.7-12.8 12.8 0 7.1 5.7 12.8 12.8 12.8h335.5c18.5 0 33.6 14 33.6 31.2v183.3c0 7.2 5.2 13.8 12.4 14.6 8.3 0.8 15.3-5.7 15.3-13.8V117.2c0-31.3-27.5-56.8-61.3-56.8z" p-id="1982"></path><path d="M679 739.3c-31.6 0-61.3-12.3-83.7-34.7-22.4-22.4-34.7-52.1-34.7-83.7s12.3-61.4 34.7-83.7c22.4-22.4 52.1-34.7 83.7-34.7s61.3 12.3 83.7 34.7c22.4 22.4 34.7 52.1 34.7 83.7s-12.3 61.3-34.7 83.7c-22.4 22.4-52.1 34.7-83.7 34.7z m0-214.5c-53 0-96.1 43.1-96.1 96.1 0 53 43.1 96.1 96.1 96.1s96.1-43.1 96.1-96.1-43.1-96.1-96.1-96.1z m0 0M454.4 954.8c0 6.2 5 11.1 11.1 11.1 6.2 0 11.1-5 11.1-11.1s-5-11.1-11.1-11.1-11.1 5-11.1 11.1z m0 0" p-id="1983"></path><path d="M764.6 750.5c4.5-5.1 2.4-13.2-4-15.4-23.6-7.9-48.5-12.1-73.9-12.1-31.4 0-61.8 6.1-90.4 18.2-27.7 11.7-52.5 28.4-73.8 49.8-21.3 21.3-38.1 46.1-49.8 73.8-10.8 25.6-16.8 52.6-18 80.4-0.2 5.5 4.1 10.1 9.6 10.1h3.1c5.1 0 9.3-4 9.5-9.1 4.8-111.6 97-200.9 209.8-200.9 22.2 0 44 3.5 64.8 10.3 3 1 6.3 0.5 8.8-1.5l3-2.3 1.3-1.3z" p-id="1984"></path><path d="M897.2 804.1H688.1c-5 0-9.1 4.1-9.1 9.1s4.1 9.1 9.1 9.1h209.1c5 0 9.1-4.1 9.1-9.1-0.1-5-4.1-9.1-9.1-9.1zM897.2 858.2H688.1c-5 0-9.1 4.1-9.1 9.1s4.1 9.1 9.1 9.1h209.1c5 0 9.1-4.1 9.1-9.1-0.1-5-4.1-9.1-9.1-9.1zM897.2 913.1H688.1c-5 0-9.1 4.1-9.1 9.1s4.1 9.1 9.1 9.1h209.1c5 0 9.1-4.1 9.1-9.1-0.1-5-4.1-9.1-9.1-9.1z" p-id="1985"></path></svg>