<?xml version="1.0" standalone="no"?><!DOCTYPE svg PUBLIC "-//W3C//DTD SVG 1.1//EN" "http://www.w3.org/Graphics/SVG/1.1/DTD/svg11.dtd"><svg class="icon" width="200px" height="200.00px" viewBox="0 0 1024 1024" version="1.1" xmlns="http://www.w3.org/2000/svg"><path fill="#ffffff" d="M886.204657 166.204369 142.221142 166.204369c-20.958334 0-41.915645 20.957311-41.915645 41.915645l0 471.54052c0 20.953218 20.957311 41.911552 41.915645 41.911552l738.743164 0c20.957311 0 41.915645-20.958334 41.915645-41.911552L922.879951 208.120015C928.120302 181.921329 907.161968 166.204369 886.204657 166.204369L886.204657 166.204369zM875.728048 601.069595 152.697751 601.069595 152.697751 213.356272l728.266555 0 0 387.713322L875.728048 601.069595zM875.728048 601.069595M304.639279 307.664172c0 12.348236 5.080715 24.615631 13.81054 33.345456 8.729825 8.729825 20.99722 13.81054 33.345456 13.81054 12.343119 0 24.610514-5.080715 33.341363-13.81054 8.729825-8.729825 13.81054-20.99722 13.81054-33.345456 0-12.343119-5.080715-24.611537-13.81054-33.341363-8.730848-8.729825-20.998243-13.81054-33.341363-13.81054-12.348236 0-24.615631 5.080715-33.345456 13.81054C309.719994 283.052634 304.639279 295.321052 304.639279 307.664172L304.639279 307.664172zM304.639279 307.664172M540.40698 412.453796l199.097524 0 0 136.223544L540.40698 548.677341 540.40698 412.453796 540.40698 412.453796zM540.40698 412.453796M540.40698 276.230252l199.097524 0 0 15.71696L540.40698 291.947212 540.40698 276.230252 540.40698 276.230252zM540.40698 276.230252M540.40698 307.664172l199.097524 0 0 15.722076L540.40698 323.386248 540.40698 307.664172 540.40698 307.664172zM540.40698 307.664172M294.161646 412.453796l199.093431 0 0 15.71696L294.161646 428.170756 294.161646 412.453796 294.161646 412.453796zM294.161646 412.453796M294.161646 443.887716l199.093431 0 0 15.717983L294.161646 459.605699 294.161646 443.887716 294.161646 443.887716zM294.161646 443.887716M294.161646 470.086401l199.093431 0 0 15.71696L294.161646 485.803361 294.161646 470.086401 294.161646 470.086401zM294.161646 470.086401M294.161646 501.521345l199.093431 0 0 15.71696L294.161646 517.238304 294.161646 501.521345 294.161646 501.521345zM294.161646 501.521345M294.161646 532.955264l199.093431 0 0 15.722076L294.161646 548.677341 294.161646 532.955264 294.161646 532.955264zM294.161646 532.955264M655.673214 810.643728l-57.633628 0-10.476609-110.029976L440.862823 700.613752l-10.480702 110.029976-57.633628 0c-20.953218 0-36.675294 26.193569-36.675294 47.151903l351.038028 0C692.348508 836.837296 676.630525 810.643728 655.673214 810.643728L655.673214 810.643728zM655.673214 810.643728" /></svg>