<?xml version="1.0" standalone="no"?><!DOCTYPE svg PUBLIC "-//W3C//DTD SVG 1.1//EN" "http://www.w3.org/Graphics/SVG/1.1/DTD/svg11.dtd"><svg t="1546936168815" class="icon" style="" viewBox="0 0 1024 1024" version="1.1" xmlns="http://www.w3.org/2000/svg" p-id="7356" xmlns:xlink="http://www.w3.org/1999/xlink" width="200" height="200"><defs><style type="text/css"></style></defs><path d="M982.041951 651.363902H494.518049a39.960976 39.960976 0 0 1-39.960976-39.960975V412.597073a39.960976 39.960976 0 0 1 39.960976-39.960975h487.523902a39.960976 39.960976 0 0 1 39.960976 39.960975v198.805854a39.960976 39.960976 0 0 1-39.960976 39.960975z m-447.562927-79.921951h407.601952V452.558049H534.479024zM982.041951 1024H494.518049a39.960976 39.960976 0 0 1-39.960976-39.960976V784.234146a39.960976 39.960976 0 0 1 39.960976-39.960975h487.523902a39.960976 39.960976 0 0 1 39.960976 39.960975v199.804878a39.960976 39.960976 0 0 1-39.960976 39.960976z m-447.562927-79.921951h407.601952V824.195122H534.479024zM982.041951 279.726829H494.518049a39.960976 39.960976 0 0 1-39.960976-39.960975V39.960976a39.960976 39.960976 0 0 1 39.960976-39.960976h487.523902a39.960976 39.960976 0 0 1 39.960976 39.960976v199.804878a39.960976 39.960976 0 0 1-39.960976 39.960975z m-447.562927-79.921951h407.601952V79.921951H534.479024zM247.759024 922.099512H40.960976a39.960976 39.960976 0 0 1-39.960976-39.960975V142.860488a39.960976 39.960976 0 0 1 39.960976-39.960976h206.798048a39.960976 39.960976 0 1 1 0 79.921951H80.921951v659.356098h166.837073a39.960976 39.960976 0 1 1 0 79.921951z" fill="#e6e6e6" p-id="7357"></path><path d="M247.759024 552.460488H40.960976a39.960976 39.960976 0 0 1 0-79.921951h206.798048a39.960976 39.960976 0 0 1 0 79.921951zM592.422439 266.739512a39.960976 39.960976 0 0 1-39.960976-39.960975V61.939512a39.960976 39.960976 0 0 1 79.921952 0v164.839025a39.960976 39.960976 0 0 1-39.960976 39.960975zM592.422439 645.369756a39.960976 39.960976 0 0 1-39.960976-39.960976V440.569756a39.960976 39.960976 0 0 1 79.921952 0v164.839024a39.960976 39.960976 0 0 1-39.960976 39.960976zM592.422439 1015.00878a39.960976 39.960976 0 0 1-39.960976-39.960975V810.20878a39.960976 39.960976 0 0 1 79.921952 0v164.839025a39.960976 39.960976 0 0 1-39.960976 39.960975z" fill="#e6e6e6" p-id="7358"></path></svg>