<?xml version="1.0" standalone="no"?><!DOCTYPE svg PUBLIC "-//W3C//DTD SVG 1.1//EN" "http://www.w3.org/Graphics/SVG/1.1/DTD/svg11.dtd"><svg class="icon" width="200px" height="200.00px" viewBox="0 0 1024 1024" version="1.1" xmlns="http://www.w3.org/2000/svg"><path fill="#ffffff" d="M82.290759 88.275862H341.451034A5.914483 5.914483 0 0 1 335.448276 82.290759V341.451034c0-3.354483 2.630621-5.985103 5.985103-5.985103H82.273103c3.354483 0 5.985103 2.630621 5.985104 5.985103V82.273103c0 3.354483-2.630621 5.985103-5.985104 5.985104zM17.655172 341.433379A64.706207 64.706207 0 0 0 82.290759 406.068966H341.451034A64.706207 64.706207 0 0 0 406.068966 341.433379V82.273103A64.706207 64.706207 0 0 0 341.433379 17.655172H82.273103A64.706207 64.706207 0 0 0 17.655172 82.290759V341.451034zM82.290759 688.551724H341.451034a5.914483 5.914483 0 0 1-5.985103-5.985103V941.726897c0-3.354483 2.630621-5.985103 5.985103-5.985104H82.273103c3.354483 0 5.985103 2.630621 5.985104 5.985104V682.548966c0 3.354483-2.630621 5.985103-5.985104 5.985103zM17.655172 941.709241A64.706207 64.706207 0 0 0 82.290759 1006.344828H341.451034A64.706207 64.706207 0 0 0 406.068966 941.709241V682.548966A64.706207 64.706207 0 0 0 341.433379 617.931034H82.273103A64.706207 64.706207 0 0 0 17.655172 682.566621V941.726897zM971.034483 123.586207a35.310345 35.310345 0 0 0 0-70.62069H617.931034a35.310345 35.310345 0 0 0 0 70.62069h353.103449zM617.931034 317.793103a35.310345 35.310345 0 0 0 0 70.62069h353.103449a35.310345 35.310345 0 0 0 0-70.62069H617.931034z m353.103449 370.758621a35.310345 35.310345 0 0 0 0-70.62069H617.931034a35.310345 35.310345 0 0 0 0 70.62069h353.103449zM617.931034 882.758621a35.310345 35.310345 0 0 0 0 70.620689h353.103449a35.310345 35.310345 0 0 0 0-70.620689H617.931034z" /></svg>