<?xml version="1.0" standalone="no"?><!DOCTYPE svg PUBLIC "-//W3C//DTD SVG 1.1//EN" "http://www.w3.org/Graphics/SVG/1.1/DTD/svg11.dtd"><svg t="1574665888180" class="icon" viewBox="0 0 1024 1024" version="1.1" xmlns="http://www.w3.org/2000/svg" p-id="1928" xmlns:xlink="http://www.w3.org/1999/xlink" width="200" height="200"><defs><style type="text/css"></style></defs><path d="M835 486c-1-171.1-145.5-310-323-310S189.9 314.9 189 486c-69 0-125 54-125 120.7v120.7C64 794 120 848 189 848h17.7c24.7 0 44.8-20.1 44.8-44.8V486h-0.1c0.9-137.8 117.3-249.7 260.4-249.7 143.6 0 260.5 112.8 260.5 251.4v315.5c0 24.7 20.1 44.8 44.8 44.8H835c69.1 0 125-54 125-120.7V606.7c0-66.6-56-120.7-125-120.7z" fill="#ffffff" p-id="1929"></path></svg>