<?xml version="1.0" standalone="no"?><!DOCTYPE svg PUBLIC "-//W3C//DTD SVG 1.1//EN" "http://www.w3.org/Graphics/SVG/1.1/DTD/svg11.dtd"><svg t="1546827641271" class="icon" style="" viewBox="0 0 1024 1024" version="1.1" xmlns="http://www.w3.org/2000/svg" p-id="4283" xmlns:xlink="http://www.w3.org/1999/xlink" width="200" height="200"><defs><style type="text/css"></style></defs><path d="M849.6 1006.4h-720c-27.2 0-51.2-22.4-51.2-51.2V54.4C78.4 30.4 97.6 9.6 123.2 9.6h444.8c17.6 0 32 14.4 32 32s-14.4 32-32 32H144v868.8h699.2V328c0-17.6 14.4-32 32-32s32 14.4 32 32v622.4c-1.6 30.4-25.6 56-57.6 56z" fill="#43484D" p-id="4284"></path><path d="M582.4 368c-12.8 0-24-4.8-32-12.8-9.6-9.6-14.4-22.4-14.4-40V52.8h32-32c0-9.6 0-30.4 20.8-40 14.4-6.4 27.2-3.2 41.6 9.6l292.8 273.6c12.8 12.8 17.6 28.8 12.8 44.8-6.4 16-20.8 25.6-40 25.6l-281.6 1.6zM848 344z m-248-25.6z m0-206.4v192l204.8-1.6L600 112z" fill="#43484D" p-id="4285"></path><path d="M561.6 596.8h-304c-17.6 0-32-14.4-32-32s14.4-32 32-32h304c17.6 0 32 14.4 32 32s-14.4 32-32 32zM452.8 404.8H257.6c-17.6 0-32-14.4-32-32s14.4-32 32-32h193.6c17.6 0 32 14.4 32 32s-12.8 32-30.4 32zM665.6 790.4H257.6c-17.6 0-32-14.4-32-32s14.4-32 32-32h408c17.6 0 32 14.4 32 32s-14.4 32-32 32z" fill="#229BFF" p-id="4286"></path></svg>