<?xml version="1.0" standalone="no"?><!DOCTYPE svg PUBLIC "-//W3C//DTD SVG 1.1//EN" "http://www.w3.org/Graphics/SVG/1.1/DTD/svg11.dtd"><svg t="1575429219149" class="icon" viewBox="0 0 1024 1024" version="1.1" xmlns="http://www.w3.org/2000/svg" p-id="3111" xmlns:xlink="http://www.w3.org/1999/xlink" width="200" height="200"><defs><style type="text/css"></style></defs><path d="M994.096 848.128L762.584 616.624c36.856-62.272 56.928-133.288 56.928-207.536 0-109.288-42.568-212.032-119.848-289.24C622.416 42.568 519.696 0 410.432 0S198.448 42.568 121.192 119.824C43.92 197.048 1.344 299.8 1.344 409.08c0 109.288 42.568 211.984 119.848 289.232 77.256 77.304 179.976 119.848 289.24 119.848 74.256 0 145.264-20.08 207.536-56.928l231.504 231.512a101.568 101.568 0 0 0 72.312 29.96 101.6 101.6 0 0 0 72.312-29.96c39.872-39.848 39.872-104.744 0-144.616zM407.336 682.664c-151.328 0-274-122.672-274-274s122.672-274 274-274 274 122.672 274 274-122.68 274-274 274z" p-id="3112" fill="#ffffff"></path></svg>