<?xml version="1.0" standalone="no"?><!DOCTYPE svg PUBLIC "-//W3C//DTD SVG 1.1//EN" "http://www.w3.org/Graphics/SVG/1.1/DTD/svg11.dtd"><svg t="1546935881666" class="icon" style="" viewBox="0 0 1024 1024" version="1.1" xmlns="http://www.w3.org/2000/svg" p-id="6525" xmlns:xlink="http://www.w3.org/1999/xlink" width="200" height="200"><defs><style type="text/css"></style></defs><path d="M903.5 750.1c-7-37-29.8-60.4-65.5-72.3-3.1-1-3.5-1.9-2.7-5 2.8-10.9 3.2-22.2 1.1-33.2-4.4-23.2-16.5-42.1-36-55.7-31.3-21.8-65.9-33.6-104.9-29.7-19.1 1.9-36.4 8-52.6 18.1-13.6 8.6-25.4 19-35.1 31.8-1.9-1.6-3.5-3-5.1-4.2-1.6-1.2-3.3-2.4-5-3.4-27.3-16.3-56.1-18.3-85.2-6.3-25.9 10.7-38.7 31.1-38.4 59v11.6c-6.1-0.7-11.4-1.7-16.9-1.8-22-0.8-42.6 4-61.5 15-12.8 7.4-23 17.6-30.3 30.4-13.7 23.9-15.1 49.8-11 75.9 5 32.2 20.7 58.5 49.9 75.7 9.3 5.4 18.8 11.1 30 11.1 131.4 0.1 262.9 0.1 394.3 0 2.2 0 4.4-0.6 6.6-0.9 14.5-2.9 27.3-9 38.8-18.3 16.4-13.1 25.6-30.1 29.3-50.2 0.7-3.8 1.7-7.4 2.6-11.2v-25.6c-0.5-3.7-1.7-7.1-2.4-10.8z m-437.3 61.7c-13.5 0-29.6-5.4-39.9-13.6l14.4-18.8c9.5 6.8 18.1 10.2 26.2 10.2 8.6 0 12.2-2.9 12.2-7.7 0-5.7-10-8.5-20.6-12.4-12.4-4.5-27-12.4-27-28.3 0-18.4 16-30.7 40.1-30.7 10.2 0 28.1 6.2 37.2 12.4L494.2 741c-7.3-4.8-14.6-8.1-21.5-8.1-7.3 0-10.9 2.4-10.9 6.9 0 5.7 9.5 8 20.2 11.6 13 4.5 27.4 11.6 27.4 29.1 0 17.6-15 31.3-43.2 31.3z m153.7-2.4h-27.1l-2.4-9.7h-0.7c-8.8 7.1-18.6 12.1-30.4 12.1-19.6 0-31.6-13.3-31.6-29.4 0-20.4 17.6-31.5 59-35.5-0.7-7.8-5.2-12.4-16-12.4-8.4 0-17.2 3-27.8 8.5l-11.5-19.9c14-7.7 29.1-12.8 45.7-12.8 21.1 0 42.9 14 42.9 44.2v54.8h-0.1z m-55.2-26c0 6.7 6.1 10 15.3 10 9.1 0 15-3.5 21.6-9.2v-18.5c-27.8 3.1-36.9 9.6-36.9 17.7z m165.9 26h-27.1l-2.4-9.7h-0.7c-8.8 7.1-18.6 12.1-30.4 12.1-19.6 0-31.6-13.3-31.6-29.4 0-20.4 17.6-31.5 59-35.5-0.7-7.8-5.2-12.4-16-12.4-8.4 0-17.2 3-27.8 8.5l-11.5-19.9c14-7.7 29.1-12.8 45.7-12.8 21.1 0 42.9 14 42.9 44.2v54.8h-0.1z m-64.4-26c0 6.7 6.1 10 15.3 10 9.1 0 15-3.5 21.6-9.2v-18.5c-27.8 3.1-36.9 9.6-36.9 17.7z m113.7 28.4c-13.5 0-29.6-5.4-39.9-13.6l14.4-18.8c9.5 6.8 18.1 10.2 26.2 10.2 8.6 0 12.2-2.9 12.2-7.7 0-5.7-10-8.5-20.6-12.4-12.4-4.5-27-12.4-27-28.3 0-18.4 16-30.7 40.1-30.7 16.4 0 28.1 6.2 37.2 12.4L807.9 741c-7.3-4.8-14.6-8.1-21.5-8.1-7.3 0-10.9 2.4-10.9 6.9 0 7.8 3.2 6 20.2 11.6 13 4.5 27.4 11.6 27.4 29.1-0.1 17.6-15 31.3-43.2 31.3zM146.2 295.3c7.9 13.9 21.4 18.3 36.2 18.3 159 0.1 317.9 0.1 476.9 0 7.3 0 14.7-0.2 22-1.3 15.8-2.3 31.1-16.5 30.7-34.2-0.5-28.2-0.9-56.4 0.2-84.4 0.8-18.6-19.3-35.5-35-35.3-31.6 0.3-63.2 0.1-94.8 0.1-131.9 0-263.8 0-395.8-0.1-2.2 0-4.3-0.9-6.6-1.5h-6.9c-0.5 0.5-0.9 1.4-1.4 1.4-21.6 2.4-31.2 18.6-31.3 37.7-0.3 26.4-0.5 52.8 0.2 79.2 0.2 6.7 2.3 14.1 5.6 20.1z m40.3-56.8c1-17.4 16.8-35.2 36.8-35.5 19.7-0.3 37.5 15.6 36.8 37 1.4 17.7-15.1 36.3-36.6 36.8-17 0.4-38.1-18.4-37-38.3z m191.4 403.2c-28.4 22.5-48.4 50.6-55.2 87.4-3.3 18.4-1.7 36.3 1.1 54.4 3.1 20.2 9.6 39.3 18.4 57.6 4.3 8.8 9.7 17 14.9 26h-6.5c-56.3 0-112.6-0.1-169 0.1-19 0-31.9-14.3-32-32.1-0.3-84-0.2-167.9-0.1-251.9 0-16.1 13.1-29.6 28.4-29.6h300.3c0.8 0 1.5 0.1 3.3 0.2-16.5 12.6-25 29.4-31.2 47.6-1.3 3.8-2.8 5.9-6.7 7-23.6 7.3-46 17.7-65.7 33.3zM176.7 516.6c83.4-0.1 166.8-0.1 250.1-0.1 82.8 0 165.7 0 248.4-0.1 4.6 0 9.5-0.8 13.8-2.5 11.4-4.1 23.8-17.7 23.3-33.3-0.8-28.9-0.2-57.9-0.3-86.9 0-2.2-0.3-4.6-1-6.8-4.7-17-20.9-27-39.3-27-160.6-0.1-321.4-0.1-482 0-5.5 0-11 0.5-16.3 1.2-19.9 2.5-32.9 17.6-32.9 38.2v79.9c0 21.7 20.2 37.4 36.2 37.4z m47.6-110.7c18 0.2 37.4 17.6 35.9 37 0.8 20.7-16.4 36.4-36.4 36.8-18.5 0.3-37.8-16.6-37.3-38.5 0.3-17.8 18.1-35.5 37.8-35.3z" fill="#e6e6e6" p-id="6526"></path></svg>