<?xml version="1.0" standalone="no"?><!DOCTYPE svg PUBLIC "-//W3C//DTD SVG 1.1//EN" "http://www.w3.org/Graphics/SVG/1.1/DTD/svg11.dtd"><svg t="1546936305431" class="icon" style="" viewBox="0 0 1024 1024" version="1.1" xmlns="http://www.w3.org/2000/svg" p-id="9764" xmlns:xlink="http://www.w3.org/1999/xlink" width="200" height="200"><defs><style type="text/css"></style></defs><path d="M364.999 128.853H158.28c-52.383 0-95 42.617-95 95v206.719c0 52.383 42.617 95 95 95h206.719c52.383 0 95-42.617 95-95V223.853c0-52.384-42.617-95-95-95zM364.999 562.39H158.28c-52.383 0-95 42.617-95 95v206.719c0 52.383 42.617 95 95 95h206.719c52.383 0 95-42.617 95-95V657.39c0-52.383-42.617-95-95-95zM943.066 230.037L796.895 83.865c-17.943-17.943-41.8-27.825-67.175-27.825-25.376 0-49.232 9.881-67.175 27.825L516.372 230.037c-37.041 37.041-37.041 97.31 0 134.35l146.172 146.172c17.943 17.943 41.8 27.825 67.176 27.825 25.375 0 49.231-9.882 67.175-27.825l146.172-146.172c17.943-17.943 27.825-41.8 27.825-67.175s-9.882-49.233-27.826-67.175z m-21.212 113.137L775.682 489.346c-12.277 12.277-28.601 19.038-45.962 19.038-17.362 0-33.686-6.761-45.963-19.038L537.585 343.174c-25.343-25.344-25.343-66.581 0-91.924l146.173-146.172c12.276-12.277 28.6-19.038 45.962-19.038 17.361 0 33.685 6.761 45.962 19.038L921.854 251.25c12.276 12.277 19.038 28.6 19.038 45.962s-6.762 33.685-19.038 45.962zM798.887 562.39H592.168c-52.383 0-95 42.617-95 95v206.719c0 52.383 42.617 95 95 95h206.719c52.383 0 95-42.617 95-95V657.39c0-52.383-42.617-95-95-95z" fill="#e6e6e6" p-id="9765"></path></svg>