<?xml version="1.0" standalone="no"?><!DOCTYPE svg PUBLIC "-//W3C//DTD SVG 1.1//EN" "http://www.w3.org/Graphics/SVG/1.1/DTD/svg11.dtd"><svg t="1546836291594" class="icon" style="" viewBox="0 0 1024 1024" version="1.1" xmlns="http://www.w3.org/2000/svg" p-id="9282" xmlns:xlink="http://www.w3.org/1999/xlink" width="200" height="200"><defs><style type="text/css"></style></defs><path d="M 632 391.906 l 0.09375 0.09375 v 480.563 l -0.09375 0.09375 H 151.437 l -0.09375 -0.09375 V 392 l 0.09375 -0.09375 H 632 m 0.09375 -60 H 151.344 c -33 0 -60 27 -60 60 v 480.75 c 0 33 27 60 60 60 h 480.75 c 33 0 60 -27 60 -60 V 391.906 c 0 -33 -27 -60 -60 -60 Z" p-id="9283" fill="#e6e6e6"></path><path d="M 752 271.906 l 0.09375 0.09375 v 480.563 l -0.09375 0.09375 h -59.8125 l -0.09375 -0.09375 V 391.906 c 0 -33.0938 -26.9063 -60 -60 -60 H 271.437 l -0.09375 -0.09375 V 272 l 0.09375 -0.09375 H 752 m 0.09375 -60 H 271.344 c -33 0 -60 27 -60 60 v 60 c 0 33 27 60 60 60 h 360.75 v 360.75 c 0 33 27 60 60 60 h 60 c 33 0 60 -27 60 -60 V 271.906 c 0 -33 -27 -60 -60 -60 Z" p-id="9284" fill="#e6e6e6"></path><path d="M 872 151.906 l 0.09375 0.09375 v 480.563 l -0.09375 0.09375 h -59.8125 l -0.09375 -0.09375 V 271.906 c 0 -33.0938 -26.9063 -60 -60 -60 H 391.437 l -0.09375 -0.09375 V 152 l 0.09375 -0.09375 H 872 m 0.09375 -60 H 391.344 c -33 0 -60 27 -60 60 v 60 c 0 33 27 60 60 60 h 360.75 v 360.75 c 0 33 27 60 60 60 h 60 c 33 0 60 -27 60 -60 V 151.906 c 0 -33 -27 -60 -60 -60 Z" p-id="9285" fill="#e6e6e6"></path></svg>