<?xml version="1.0" standalone="no"?><!DOCTYPE svg PUBLIC "-//W3C//DTD SVG 1.1//EN" "http://www.w3.org/Graphics/SVG/1.1/DTD/svg11.dtd"><svg t="1571133631798" class="icon" viewBox="0 0 1024 1024" version="1.1" xmlns="http://www.w3.org/2000/svg" p-id="3145" xmlns:xlink="http://www.w3.org/1999/xlink" width="200" height="200"><defs><style type="text/css"></style></defs><path d="M235 396.3c15.8-39.2 37.2-67.1 64.9-94.5 98.9-98.1 253.1-117.7 367.8-43.1L665 163l97.6-22c-174-117.7-411.3-101.1-565.5 51.9-39.5 39.2-78.8 99.7-102.5 154.6l51.1 85.5 89.3-36.7z m68.8 317.4c-55.5-54.8-79.6-146.1-83.5-220.7L135 542.3l-70.3-64.9C60.3 623.7 98 726.3 194.8 829.2c75.9 80.7 195.6 130.5 318.7 130.3l39.5-85.1-71.8-67.7c-87.1-17.7-126.8-43.1-177.4-93zM844 212.2l-90.3 13.5-3.3 86.7C829.4 430 835 617 720.7 720.7c-41.3 37.4-92.5 63.6-143.9 75.4l85 53.9-48.4 97.2c83.1-19.6 155.4-60.3 215.2-118.6C989 672.3 1005 396.6 844 212.2zM490.8 623.4c44.6-26.1 89.4-52 134.4-77.6 44.9-25.6 44.9-51.2 0-76.8-44.9-25.6-89.7-51.5-134.4-77.6-44.6-26.1-66.8-13.3-66.5 38.4 0.3 51.7 0.3 103.5 0 155.2-0.3 51.7 21.9 64.5 66.5 38.4z" fill="#ffffff" p-id="3146"></path></svg>